#usda 1.0
(
    defaultPrim = "Root"
    upAxis = "Z"
)

def Xform "Root"
{
    def Camera "Camera_OmniVision_OV9782_Color" (
        hide_in_stage_window = false
        kind = "model"
        no_delete = false
    )
    {
        token cameraProjectionType = "pinhole" (
            allowedTokens = ["pinhole", "fisheyeOrthographic", "fisheyeEquidistant", "fisheyeEquisolid", "fisheyePolynomial", "fisheyeSpherical"]
        )
        float2 clippingRange = (0.01, 1000000)
        float focalLength = 1.93
        float focusDistance = 0.5
        float fStop = 0
        float fthetaMaxFov = 98
        float horizontalAperture = 3.896
        custom uniform vector3d omni:kit:centerOfInterest = (0, 0, -100)
        token ui:displayGroup = "Material Graphs"
        token ui:displayName = "Camera_OmniVision_OV9782_Color"
        int ui:order = 1024
        float verticalAperture = 2.453
        token visibility = "invisible"
        float3 xformOp:rotateXYZ = (0, -0, 0)
        float3 xformOp:scale = (1, 1, 1)
        double3 xformOp:translate = (0, 0, 0)
        uniform token[] xformOpOrder = ["xformOp:translate", "xformOp:rotateXYZ", "xformOp:scale"]

        def Xform "OmniverseKitViewportCameraMesh" (
            always_pick_model = true
            hide_in_stage_window = true
            kind = "subcomponent"
            no_delete = true
        )
        {
            bool primvars:doNotCastShadows = 1
            bool primvars:omni:kit:isGizmo = 1
            token visibility = "inherited"
            float3 xformOp:rotateXYZ = (0, 0, 0)
            float3 xformOp:scale = (1, 1, 1)
            double3 xformOp:translate = (0, 0, 0)
            uniform token[] xformOpOrder = ["xformOp:translate", "xformOp:rotateXYZ", "xformOp:scale"]

            def Mesh "CameraMode" (
                always_pick_model = true
                hide_in_stage_window = true
                no_delete = true
            )
            {
                float3[] extent = [(3.4028235e38, 3.4028235e38, 3.4028235e38), (-3.4028235e38, -3.4028235e38, -3.4028235e38)]
                int[] faceVertexCounts = [4, 4, 4, 4, 4, 4, 4, 4, 4, 4, 4, 4, 4, 4, 4, 4, 4, 4, 4, 4, 4, 4, 4, 4, 4, 4, 4, 4, 4, 4, 4, 4, 3, 3, 3, 3, 3, 3, 3, 3, 3, 3, 3, 3, 3, 3, 3, 3, 3, 3, 3, 3, 3, 3, 3, 3, 3, 3, 3, 3, 3, 3, 3, 3, 3, 3, 3, 3, 3, 3, 3, 3, 3, 3, 3, 3, 3, 3, 3, 3, 3, 3, 3, 3, 3, 3, 3, 3, 3, 3, 3, 3, 3, 3, 3, 3]
                int[] faceVertexIndices = [0, 1, 33, 32, 1, 2, 34, 33, 2, 3, 35, 34, 3, 4, 36, 35, 4, 5, 37, 36, 5, 6, 38, 37, 6, 7, 39, 38, 7, 8, 40, 39, 8, 9, 41, 40, 9, 10, 42, 41, 10, 11, 43, 42, 11, 12, 44, 43, 12, 13, 45, 44, 13, 14, 46, 45, 14, 15, 47, 46, 15, 16, 48, 47, 16, 17, 49, 48, 17, 18, 50, 49, 18, 19, 51, 50, 19, 20, 52, 51, 20, 21, 53, 52, 21, 22, 54, 53, 22, 23, 55, 54, 23, 24, 56, 55, 24, 25, 57, 56, 25, 26, 58, 57, 26, 27, 59, 58, 27, 28, 60, 59, 28, 29, 61, 60, 29, 30, 62, 61, 30, 31, 63, 62, 31, 0, 32, 63, 64, 66, 65, 64, 67, 66, 64, 68, 67, 64, 69, 68, 64, 70, 69, 64, 71, 70, 64, 72, 71, 64, 73, 72, 64, 74, 73, 64, 75, 74, 64, 76, 75, 64, 77, 76, 64, 78, 77, 64, 79, 78, 64, 80, 79, 64, 81, 80, 64, 82, 81, 64, 83, 82, 64, 84, 83, 64, 85, 84, 64, 86, 85, 64, 87, 86, 64, 88, 87, 64, 89, 88, 64, 90, 89, 64, 91, 90, 64, 92, 91, 64, 93, 92, 64, 94, 93, 64, 95, 94, 64, 96, 95, 64, 65, 96, 97, 98, 99, 97, 99, 100, 97, 100, 101, 97, 101, 102, 97, 102, 103, 97, 103, 104, 97, 104, 105, 97, 105, 106, 97, 106, 107, 97, 107, 108, 97, 108, 109, 97, 109, 110, 97, 110, 111, 97, 111, 112, 97, 112, 113, 97, 113, 114, 97, 114, 115, 97, 115, 116, 97, 116, 117, 97, 117, 118, 97, 118, 119, 97, 119, 120, 97, 120, 121, 97, 121, 122, 97, 122, 123, 97, 123, 124, 97, 124, 125, 97, 125, 126, 97, 126, 127, 97, 127, 128, 97, 128, 129, 97, 129, 98]
                normal3f[] normals = [(50, 0, 0), (49.039265, 9.754516, 0), (49.039265, 9.754516, 0), (50, 0, 0), (49.039265, 9.754516, 0), (46.193977, 19.134172, 0), (46.193977, 19.134172, 0), (49.039265, 9.754516, 0), (46.193977, 19.134172, 0), (41.573483, 27.778511, 0), (41.573483, 27.778511, 0), (46.193977, 19.134172, 0), (41.573483, 27.778511, 0), (35.35534, 35.35534, 0), (35.35534, 35.35534, 0), (41.573483, 27.778511, 0), (35.35534, 35.35534, 0), (27.778511, 41.573483, 0), (27.778511, 41.573483, 0), (35.35534, 35.35534, 0), (27.778511, 41.573483, 0), (19.134172, 46.193977, 0), (19.134172, 46.193977, 0), (27.778511, 41.573483, 0), (19.134172, 46.193977, 0), (9.754516, 49.039265, 0), (9.754516, 49.039265, 0), (19.134172, 46.193977, 0), (9.754516, 49.039265, 0), (3.0616169e-15, 50, 0), (3.0616169e-15, 50, 0), (9.754516, 49.039265, 0), (3.0616169e-15, 50, 0), (-9.754516, 49.039265, 0), (-9.754516, 49.039265, 0), (3.0616169e-15, 50, 0), (-9.754516, 49.039265, 0), (-19.134172, 46.193977, 0), (-19.134172, 46.193977, 0), (-9.754516, 49.039265, 0), (-19.134172, 46.193977, 0), (-27.778511, 41.573483, 0), (-27.778511, 41.573483, 0), (-19.134172, 46.193977, 0), (-27.778511, 41.573483, 0), (-35.35534, 35.35534, 0), (-35.35534, 35.35534, 0), (-27.778511, 41.573483, 0), (-35.35534, 35.35534, 0), (-41.573483, 27.778511, 0), (-41.573483, 27.778511, 0), (-35.35534, 35.35534, 0), (-41.573483, 27.778511, 0), (-46.193977, 19.134172, 0), (-46.193977, 19.134172, 0), (-41.573483, 27.778511, 0), (-46.193977, 19.134172, 0), (-49.039265, 9.754516, 0), (-49.039265, 9.754516, 0), (-46.193977, 19.134172, 0), (-49.039265, 9.754516, 0), (-50, 6.1232338e-15, 0), (-50, 6.1232338e-15, 0), (-49.039265, 9.754516, 0), (-50, 6.1232338e-15, 0), (-49.039265, -9.754516, 0), (-49.039265, -9.754516, 0), (-50, 6.1232338e-15, 0), (-49.039265, -9.754516, 0), (-46.193977, -19.134172, 0), (-46.193977, -19.134172, 0), (-49.039265, -9.754516, 0), (-46.193977, -19.134172, 0), (-41.573483, -27.778511, 0), (-41.573483, -27.778511, 0), (-46.193977, -19.134172, 0), (-41.573483, -27.778511, 0), (-35.35534, -35.35534, 0), (-35.35534, -35.35534, 0), (-41.573483, -27.778511, 0), (-35.35534, -35.35534, 0), (-27.778511, -41.573483, 0), (-27.778511, -41.573483, 0), (-35.35534, -35.35534, 0), (-27.778511, -41.573483, 0), (-19.134172, -46.193977, 0), (-19.134172, -46.193977, 0), (-27.778511, -41.573483, 0), (-19.134172, -46.193977, 0), (-9.754516, -49.039265, 0), (-9.754516, -49.039265, 0), (-19.134172, -46.193977, 0), (-9.754516, -49.039265, 0), (-9.184851e-15, -50, 0), (-9.184851e-15, -50, 0), (-9.754516, -49.039265, 0), (-9.184851e-15, -50, 0), (9.754516, -49.039265, 0), (9.754516, -49.039265, 0), (-9.184851e-15, -50, 0), (9.754516, -49.039265, 0), (19.134172, -46.193977, 0), (19.134172, -46.193977, 0), (9.754516, -49.039265, 0), (19.134172, -46.193977, 0), (27.778511, -41.573483, 0), (27.778511, -41.573483, 0), (19.134172, -46.193977, 0), (27.778511, -41.573483, 0), (35.35534, -35.35534, 0), (35.35534, -35.35534, 0), (27.778511, -41.573483, 0), (35.35534, -35.35534, 0), (41.573483, -27.778511, 0), (41.573483, -27.778511, 0), (35.35534, -35.35534, 0), (41.573483, -27.778511, 0), (46.193977, -19.134172, 0), (46.193977, -19.134172, 0), (41.573483, -27.778511, 0), (46.193977, -19.134172, 0), (49.039265, -9.754516, 0), (49.039265, -9.754516, 0), (46.193977, -19.134172, 0), (49.039265, -9.754516, 0), (50, 0, 0), (50, 0, 0), (49.039265, -9.754516, 0), (0, 0, -1), (0, 0, -1), (0, 0, -1), (0, 0, -1), (0, 0, -1), (0, 0, -1), (0, 0, -1), (0, 0, -1), (0, 0, -1), (0, 0, -1), (0, 0, -1), (0, 0, -1), (0, 0, -1), (0, 0, -1), (0, 0, -1), (0, 0, -1), (0, 0, -1), (0, 0, -1), (0, 0, -1), (0, 0, -1), (0, 0, -1), (0, 0, -1), (0, 0, -1), (0, 0, -1), (0, 0, -1), (0, 0, -1), (0, 0, -1), (0, 0, -1), (0, 0, -1), (0, 0, -1), (0, 0, -1), (0, 0, -1), (0, 0, -1), (0, 0, -1), (0, 0, -1), (0, 0, -1), (0, 0, -1), (0, 0, -1), (0, 0, -1), (0, 0, -1), (0, 0, -1), (0, 0, -1), (0, 0, -1), (0, 0, -1), (0, 0, -1), (0, 0, -1), (0, 0, -1), (0, 0, -1), (0, 0, -1), (0, 0, -1), (0, 0, -1), (0, 0, -1), (0, 0, -1), (0, 0, -1), (0, 0, -1), (0, 0, -1), (0, 0, -1), (0, 0, -1), (0, 0, -1), (0, 0, -1), (0, 0, -1), (0, 0, -1), (0, 0, -1), (0, 0, -1), (0, 0, -1), (0, 0, -1), (0, 0, -1), (0, 0, -1), (0, 0, -1), (0, 0, -1), (0, 0, -1), (0, 0, -1), (0, 0, -1), (0, 0, -1), (0, 0, -1), (0, 0, -1), (0, 0, -1), (0, 0, -1), (0, 0, -1), (0, 0, -1), (0, 0, -1), (0, 0, -1), (0, 0, -1), (0, 0, -1), (0, 0, -1), (0, 0, -1), (0, 0, -1), (0, 0, -1), (0, 0, -1), (0, 0, -1), (0, 0, -1), (0, 0, -1), (0, 0, -1), (0, 0, -1), (0, 0, -1), (0, 0, -1), (0, 0, 1), (0, 0, 1), (0, 0, 1), (0, 0, 1), (0, 0, 1), (0, 0, 1), (0, 0, 1), (0, 0, 1), (0, 0, 1), (0, 0, 1), (0, 0, 1), (0, 0, 1), (0, 0, 1), (0, 0, 1), (0, 0, 1), (0, 0, 1), (0, 0, 1), (0, 0, 1), (0, 0, 1), (0, 0, 1), (0, 0, 1), (0, 0, 1), (0, 0, 1), (0, 0, 1), (0, 0, 1), (0, 0, 1), (0, 0, 1), (0, 0, 1), (0, 0, 1), (0, 0, 1), (0, 0, 1), (0, 0, 1), (0, 0, 1), (0, 0, 1), (0, 0, 1), (0, 0, 1), (0, 0, 1), (0, 0, 1), (0, 0, 1), (0, 0, 1), (0, 0, 1), (0, 0, 1), (0, 0, 1), (0, 0, 1), (0, 0, 1), (0, 0, 1), (0, 0, 1), (0, 0, 1), (0, 0, 1), (0, 0, 1), (0, 0, 1), (0, 0, 1), (0, 0, 1), (0, 0, 1), (0, 0, 1), (0, 0, 1), (0, 0, 1), (0, 0, 1), (0, 0, 1), (0, 0, 1), (0, 0, 1), (0, 0, 1), (0, 0, 1), (0, 0, 1), (0, 0, 1), (0, 0, 1), (0, 0, 1), (0, 0, 1), (0, 0, 1), (0, 0, 1), (0, 0, 1), (0, 0, 1), (0, 0, 1), (0, 0, 1), (0, 0, 1), (0, 0, 1), (0, 0, 1), (0, 0, 1), (0, 0, 1), (0, 0, 1), (0, 0, 1), (0, 0, 1), (0, 0, 1), (0, 0, 1), (0, 0, 1), (0, 0, 1), (0, 0, 1), (0, 0, 1), (0, 0, 1), (0, 0, 1), (0, 0, 1), (0, 0, 1), (0, 0, 1), (0, 0, 1), (0, 0, 1), (0, 0, 1)] (
                    interpolation = "faceVarying"
                )
                uniform token orientation = "rightHanded"
                point3f[] points = [(50, 0, -50), (49.039265, 9.754516, -50), (46.193977, 19.134172, -50), (41.573483, 27.778511, -50), (35.35534, 35.35534, -50), (27.778511, 41.573483, -50), (19.134172, 46.193977, -50), (9.754516, 49.039265, -50), (3.0616169e-15, 50, -50), (-9.754516, 49.039265, -50), (-19.134172, 46.193977, -50), (-27.778511, 41.573483, -50), (-35.35534, 35.35534, -50), (-41.573483, 27.778511, -50), (-46.193977, 19.134172, -50), (-49.039265, 9.754516, -50), (-50, 6.1232338e-15, -50), (-49.039265, -9.754516, -50), (-46.193977, -19.134172, -50), (-41.573483, -27.778511, -50), (-35.35534, -35.35534, -50), (-27.778511, -41.573483, -50), (-19.134172, -46.193977, -50), (-9.754516, -49.039265, -50), (-9.184851e-15, -50, -50), (9.754516, -49.039265, -50), (19.134172, -46.193977, -50), (27.778511, -41.573483, -50), (35.35534, -35.35534, -50), (41.573483, -27.778511, -50), (46.193977, -19.134172, -50), (49.039265, -9.754516, -50), (50, 0, 50), (49.039265, 9.754516, 50), (46.193977, 19.134172, 50), (41.573483, 27.778511, 50), (35.35534, 35.35534, 50), (27.778511, 41.573483, 50), (19.134172, 46.193977, 50), (9.754516, 49.039265, 50), (3.0616169e-15, 50, 50), (-9.754516, 49.039265, 50), (-19.134172, 46.193977, 50), (-27.778511, 41.573483, 50), (-35.35534, 35.35534, 50), (-41.573483, 27.778511, 50), (-46.193977, 19.134172, 50), (-49.039265, 9.754516, 50), (-50, 6.1232338e-15, 50), (-49.039265, -9.754516, 50), (-46.193977, -19.134172, 50), (-41.573483, -27.778511, 50), (-35.35534, -35.35534, 50), (-27.778511, -41.573483, 50), (-19.134172, -46.193977, 50), (-9.754516, -49.039265, 50), (-9.184851e-15, -50, 50), (9.754516, -49.039265, 50), (19.134172, -46.193977, 50), (27.778511, -41.573483, 50), (35.35534, -35.35534, 50), (41.573483, -27.778511, 50), (46.193977, -19.134172, 50), (49.039265, -9.754516, 50), (0, 0, -50), (50, 0, -50), (49.039265, 9.754516, -50), (46.193977, 19.134172, -50), (41.573483, 27.778511, -50), (35.35534, 35.35534, -50), (27.778511, 41.573483, -50), (19.134172, 46.193977, -50), (9.754516, 49.039265, -50), (3.0616169e-15, 50, -50), (-9.754516, 49.039265, -50), (-19.134172, 46.193977, -50), (-27.778511, 41.573483, -50), (-35.35534, 35.35534, -50), (-41.573483, 27.778511, -50), (-46.193977, 19.134172, -50), (-49.039265, 9.754516, -50), (-50, 6.1232338e-15, -50), (-49.039265, -9.754516, -50), (-46.193977, -19.134172, -50), (-41.573483, -27.778511, -50), (-35.35534, -35.35534, -50), (-27.778511, -41.573483, -50), (-19.134172, -46.193977, -50), (-9.754516, -49.039265, -50), (-9.184851e-15, -50, -50), (9.754516, -49.039265, -50), (19.134172, -46.193977, -50), (27.778511, -41.573483, -50), (35.35534, -35.35534, -50), (41.573483, -27.778511, -50), (46.193977, -19.134172, -50), (49.039265, -9.754516, -50), (0, 0, 50), (50, 0, 50), (49.039265, 9.754516, 50), (46.193977, 19.134172, 50), (41.573483, 27.778511, 50), (35.35534, 35.35534, 50), (27.778511, 41.573483, 50), (19.134172, 46.193977, 50), (9.754516, 49.039265, 50), (3.0616169e-15, 50, 50), (-9.754516, 49.039265, 50), (-19.134172, 46.193977, 50), (-27.778511, 41.573483, 50), (-35.35534, 35.35534, 50), (-41.573483, 27.778511, 50), (-46.193977, 19.134172, 50), (-49.039265, 9.754516, 50), (-50, 6.1232338e-15, 50), (-49.039265, -9.754516, 50), (-46.193977, -19.134172, 50), (-41.573483, -27.778511, 50), (-35.35534, -35.35534, 50), (-27.778511, -41.573483, 50), (-19.134172, -46.193977, 50), (-9.754516, -49.039265, 50), (-9.184851e-15, -50, 50), (9.754516, -49.039265, 50), (19.134172, -46.193977, 50), (27.778511, -41.573483, 50), (35.35534, -35.35534, 50), (41.573483, -27.778511, 50), (46.193977, -19.134172, 50), (49.039265, -9.754516, 50)]
                bool primvars:doNotCastShadows = 1
                bool primvars:omni:kit:isGizmo = 1
                float2[] primvars:st = [(0, 0), (0.03125, 0), (0.03125, 1), (0, 1), (0.03125, 0), (0.0625, 0), (0.0625, 1), (0.03125, 1), (0.0625, 0), (0.09375, 0), (0.09375, 1), (0.0625, 1), (0.09375, 0), (0.125, 0), (0.125, 1), (0.09375, 1), (0.125, 0), (0.15625, 0), (0.15625, 1), (0.125, 1), (0.15625, 0), (0.1875, 0), (0.1875, 1), (0.15625, 1), (0.1875, 0), (0.21875, 0), (0.21875, 1), (0.1875, 1), (0.21875, 0), (0.25, 0), (0.25, 1), (0.21875, 1), (0.25, 0), (0.28125, 0), (0.28125, 1), (0.25, 1), (0.28125, 0), (0.3125, 0), (0.3125, 1), (0.28125, 1), (0.3125, 0), (0.34375, 0), (0.34375, 1), (0.3125, 1), (0.34375, 0), (0.375, 0), (0.375, 1), (0.34375, 1), (0.375, 0), (0.40625, 0), (0.40625, 1), (0.375, 1), (0.40625, 0), (0.4375, 0), (0.4375, 1), (0.40625, 1), (0.4375, 0), (0.46875, 0), (0.46875, 1), (0.4375, 1), (0.46875, 0), (0.5, 0), (0.5, 1), (0.46875, 1), (0.5, 0), (0.53125, 0), (0.53125, 1), (0.5, 1), (0.53125, 0), (0.5625, 0), (0.5625, 1), (0.53125, 1), (0.5625, 0), (0.59375, 0), (0.59375, 1), (0.5625, 1), (0.59375, 0), (0.625, 0), (0.625, 1), (0.59375, 1), (0.625, 0), (0.65625, 0), (0.65625, 1), (0.625, 1), (0.65625, 0), (0.6875, 0), (0.6875, 1), (0.65625, 1), (0.6875, 0), (0.71875, 0), (0.71875, 1), (0.6875, 1), (0.71875, 0), (0.75, 0), (0.75, 1), (0.71875, 1), (0.75, 0), (0.78125, 0), (0.78125, 1), (0.75, 1), (0.78125, 0), (0.8125, 0), (0.8125, 1), (0.78125, 1), (0.8125, 0), (0.84375, 0), (0.84375, 1), (0.8125, 1), (0.84375, 0), (0.875, 0), (0.875, 1), (0.84375, 1), (0.875, 0), (0.90625, 0), (0.90625, 1), (0.875, 1), (0.90625, 0), (0.9375, 0), (0.9375, 1), (0.90625, 1), (0.9375, 0), (0.96875, 0), (0.96875, 1), (0.9375, 1), (0.96875, 0), (1, 0), (1, 1), (0.96875, 1), (0.5, 0.5), (0.00960736, 0.59754515), (0, 0.5), (0.5, 0.5), (0.038060233, 0.6913417), (0.00960736, 0.59754515), (0.5, 0.5), (0.084265195, 0.7777851), (0.038060233, 0.6913417), (0.5, 0.5), (0.14644662, 0.8535534), (0.084265195, 0.7777851), (0.5, 0.5), (0.22221488, 0.9157348), (0.14644662, 0.8535534), (0.5, 0.5), (0.30865827, 0.96193975), (0.22221488, 0.9157348), (0.5, 0.5), (0.40245485, 0.9903926), (0.30865827, 0.96193975), (0.5, 0.5), (0.5, 1), (0.40245485, 0.9903926), (0.5, 0.5), (0.59754515, 0.9903926), (0.5, 1), (0.5, 0.5), (0.6913417, 0.96193975), (0.59754515, 0.9903926), (0.5, 0.5), (0.7777851, 0.9157348), (0.6913417, 0.96193975), (0.5, 0.5), (0.8535534, 0.8535534), (0.7777851, 0.9157348), (0.5, 0.5), (0.9157348, 0.7777851), (0.8535534, 0.8535534), (0.5, 0.5), (0.96193975, 0.6913417), (0.9157348, 0.7777851), (0.5, 0.5), (0.9903926, 0.59754515), (0.96193975, 0.6913417), (0.5, 0.5), (1, 0.5), (0.9903926, 0.59754515), (0.5, 0.5), (0.9903926, 0.40245485), (1, 0.5), (0.5, 0.5), (0.96193975, 0.30865827), (0.9903926, 0.40245485), (0.5, 0.5), (0.9157348, 0.22221488), (0.96193975, 0.30865827), (0.5, 0.5), (0.8535534, 0.14644662), (0.9157348, 0.22221488), (0.5, 0.5), (0.7777851, 0.084265195), (0.8535534, 0.14644662), (0.5, 0.5), (0.6913417, 0.038060233), (0.7777851, 0.084265195), (0.5, 0.5), (0.59754515, 0.00960736), (0.6913417, 0.038060233), (0.5, 0.5), (0.5, 0), (0.59754515, 0.00960736), (0.5, 0.5), (0.40245485, 0.00960736), (0.5, 0), (0.5, 0.5), (0.30865827, 0.038060233), (0.40245485, 0.00960736), (0.5, 0.5), (0.22221488, 0.084265195), (0.30865827, 0.038060233), (0.5, 0.5), (0.14644662, 0.14644662), (0.22221488, 0.084265195), (0.5, 0.5), (0.084265195, 0.22221488), (0.14644662, 0.14644662), (0.5, 0.5), (0.038060233, 0.30865827), (0.084265195, 0.22221488), (0.5, 0.5), (0.00960736, 0.40245485), (0.038060233, 0.30865827), (0.5, 0.5), (0, 0.5), (0.00960736, 0.40245485), (0.5, 0.5), (1, 0.5), (0.9903926, 0.59754515), (0.5, 0.5), (0.9903926, 0.59754515), (0.96193975, 0.6913417), (0.5, 0.5), (0.96193975, 0.6913417), (0.9157348, 0.7777851), (0.5, 0.5), (0.9157348, 0.7777851), (0.8535534, 0.8535534), (0.5, 0.5), (0.8535534, 0.8535534), (0.7777851, 0.9157348), (0.5, 0.5), (0.7777851, 0.9157348), (0.6913417, 0.96193975), (0.5, 0.5), (0.6913417, 0.96193975), (0.59754515, 0.9903926), (0.5, 0.5), (0.59754515, 0.9903926), (0.5, 1), (0.5, 0.5), (0.5, 1), (0.40245485, 0.9903926), (0.5, 0.5), (0.40245485, 0.9903926), (0.30865827, 0.96193975), (0.5, 0.5), (0.30865827, 0.96193975), (0.22221488, 0.9157348), (0.5, 0.5), (0.22221488, 0.9157348), (0.14644662, 0.8535534), (0.5, 0.5), (0.14644662, 0.8535534), (0.084265195, 0.7777851), (0.5, 0.5), (0.084265195, 0.7777851), (0.038060233, 0.6913417), (0.5, 0.5), (0.038060233, 0.6913417), (0.00960736, 0.59754515), (0.5, 0.5), (0.00960736, 0.59754515), (0, 0.5), (0.5, 0.5), (0, 0.5), (0.00960736, 0.40245485), (0.5, 0.5), (0.00960736, 0.40245485), (0.038060233, 0.30865827), (0.5, 0.5), (0.038060233, 0.30865827), (0.084265195, 0.22221488), (0.5, 0.5), (0.084265195, 0.22221488), (0.14644662, 0.14644662), (0.5, 0.5), (0.14644662, 0.14644662), (0.22221488, 0.084265195), (0.5, 0.5), (0.22221488, 0.084265195), (0.30865827, 0.038060233), (0.5, 0.5), (0.30865827, 0.038060233), (0.40245485, 0.00960736), (0.5, 0.5), (0.40245485, 0.00960736), (0.5, 0), (0.5, 0.5), (0.5, 0), (0.59754515, 0.00960736), (0.5, 0.5), (0.59754515, 0.00960736), (0.6913417, 0.038060233), (0.5, 0.5), (0.6913417, 0.038060233), (0.7777851, 0.084265195), (0.5, 0.5), (0.7777851, 0.084265195), (0.8535534, 0.14644662), (0.5, 0.5), (0.8535534, 0.14644662), (0.9157348, 0.22221488), (0.5, 0.5), (0.9157348, 0.22221488), (0.96193975, 0.30865827), (0.5, 0.5), (0.96193975, 0.30865827), (0.9903926, 0.40245485), (0.5, 0.5), (0.9903926, 0.40245485), (1, 0.5)] (
                    interpolation = "faceVarying"
                )
                uniform token subdivisionScheme = "none"
                float3 xformOp:rotateXYZ = (0, 0, 0)
                float3 xformOp:scale = (0.2, 0.2, 0.2)
                double3 xformOp:translate = (0, 0, 0)
                uniform token[] xformOpOrder = ["xformOp:translate", "xformOp:rotateXYZ", "xformOp:scale"]
            }
        }
    }
}

